<mxfile host="Electron" agent="Mozilla/5.0 (Windows NT 10.0; Win64; x64) AppleWebKit/537.36 (KHTML, like Gecko) draw.io/24.7.17 Chrome/128.0.6613.36 Electron/32.0.1 Safari/537.36" version="24.7.17">
  <diagram name="Страница — 1" id="WVfS6QF_bvlxNAIWai8z">
    <mxGraphModel dx="1215" dy="717" grid="1" gridSize="10" guides="1" tooltips="1" connect="1" arrows="1" fold="1" page="1" pageScale="1" pageWidth="1169" pageHeight="1654" math="0" shadow="0">
      <root>
        <mxCell id="0" />
        <mxCell id="1" parent="0" />
        <mxCell id="ZnqQP2Fr6LUKQcLFzMkX-4" style="edgeStyle=orthogonalEdgeStyle;rounded=0;orthogonalLoop=1;jettySize=auto;html=1;" edge="1" parent="1" source="ZnqQP2Fr6LUKQcLFzMkX-1" target="ZnqQP2Fr6LUKQcLFzMkX-2">
          <mxGeometry relative="1" as="geometry" />
        </mxCell>
        <mxCell id="ZnqQP2Fr6LUKQcLFzMkX-1" value="&lt;font color=&quot;#ff3333&quot;&gt;Start&lt;/font&gt;" style="ellipse;whiteSpace=wrap;html=1;" vertex="1" parent="1">
          <mxGeometry x="525" y="20" width="120" height="80" as="geometry" />
        </mxCell>
        <mxCell id="ZnqQP2Fr6LUKQcLFzMkX-5" style="edgeStyle=orthogonalEdgeStyle;rounded=0;orthogonalLoop=1;jettySize=auto;html=1;" edge="1" parent="1" source="ZnqQP2Fr6LUKQcLFzMkX-2" target="ZnqQP2Fr6LUKQcLFzMkX-3">
          <mxGeometry relative="1" as="geometry" />
        </mxCell>
        <mxCell id="ZnqQP2Fr6LUKQcLFzMkX-2" value="double a=1.7,b=2,3&lt;div&gt;double hx=0.9,hy=1.0&lt;/div&gt;" style="rounded=0;whiteSpace=wrap;html=1;" vertex="1" parent="1">
          <mxGeometry x="517.5" y="130" width="135" height="60" as="geometry" />
        </mxCell>
        <mxCell id="ZnqQP2Fr6LUKQcLFzMkX-7" style="edgeStyle=orthogonalEdgeStyle;rounded=0;orthogonalLoop=1;jettySize=auto;html=1;" edge="1" parent="1" source="ZnqQP2Fr6LUKQcLFzMkX-3" target="ZnqQP2Fr6LUKQcLFzMkX-6">
          <mxGeometry relative="1" as="geometry" />
        </mxCell>
        <mxCell id="ZnqQP2Fr6LUKQcLFzMkX-3" value="x0 = -1,xn = 1&lt;div&gt;y0 = -2, yn = 2&lt;/div&gt;" style="rounded=0;whiteSpace=wrap;html=1;" vertex="1" parent="1">
          <mxGeometry x="517.5" y="230" width="135" height="60" as="geometry" />
        </mxCell>
        <mxCell id="ZnqQP2Fr6LUKQcLFzMkX-9" style="edgeStyle=orthogonalEdgeStyle;rounded=0;orthogonalLoop=1;jettySize=auto;html=1;" edge="1" parent="1" source="ZnqQP2Fr6LUKQcLFzMkX-6" target="ZnqQP2Fr6LUKQcLFzMkX-8">
          <mxGeometry relative="1" as="geometry" />
        </mxCell>
        <mxCell id="ZnqQP2Fr6LUKQcLFzMkX-12" value="true" style="edgeLabel;html=1;align=center;verticalAlign=middle;resizable=0;points=[];" vertex="1" connectable="0" parent="ZnqQP2Fr6LUKQcLFzMkX-9">
          <mxGeometry x="-0.1" y="2" relative="1" as="geometry">
            <mxPoint as="offset" />
          </mxGeometry>
        </mxCell>
        <mxCell id="ZnqQP2Fr6LUKQcLFzMkX-44" style="edgeStyle=orthogonalEdgeStyle;rounded=0;orthogonalLoop=1;jettySize=auto;html=1;" edge="1" parent="1" source="ZnqQP2Fr6LUKQcLFzMkX-6">
          <mxGeometry relative="1" as="geometry">
            <mxPoint x="910" y="370" as="targetPoint" />
          </mxGeometry>
        </mxCell>
        <mxCell id="ZnqQP2Fr6LUKQcLFzMkX-45" value="false" style="edgeLabel;html=1;align=center;verticalAlign=middle;resizable=0;points=[];" vertex="1" connectable="0" parent="ZnqQP2Fr6LUKQcLFzMkX-44">
          <mxGeometry x="-0.8987" y="2" relative="1" as="geometry">
            <mxPoint x="1" as="offset" />
          </mxGeometry>
        </mxCell>
        <mxCell id="ZnqQP2Fr6LUKQcLFzMkX-6" value="x=x0;x&amp;lt;=xn;x+=hx" style="rhombus;whiteSpace=wrap;html=1;" vertex="1" parent="1">
          <mxGeometry x="486.5" y="330" width="197" height="80" as="geometry" />
        </mxCell>
        <mxCell id="ZnqQP2Fr6LUKQcLFzMkX-14" style="edgeStyle=orthogonalEdgeStyle;rounded=0;orthogonalLoop=1;jettySize=auto;html=1;entryX=0;entryY=0.5;entryDx=0;entryDy=0;" edge="1" parent="1" source="ZnqQP2Fr6LUKQcLFzMkX-8" target="ZnqQP2Fr6LUKQcLFzMkX-6">
          <mxGeometry relative="1" as="geometry">
            <Array as="points">
              <mxPoint x="460" y="490" />
              <mxPoint x="460" y="370" />
            </Array>
          </mxGeometry>
        </mxCell>
        <mxCell id="ZnqQP2Fr6LUKQcLFzMkX-25" value="false" style="edgeLabel;html=1;align=center;verticalAlign=middle;resizable=0;points=[];" vertex="1" connectable="0" parent="ZnqQP2Fr6LUKQcLFzMkX-14">
          <mxGeometry x="-0.8407" y="-1" relative="1" as="geometry">
            <mxPoint as="offset" />
          </mxGeometry>
        </mxCell>
        <mxCell id="ZnqQP2Fr6LUKQcLFzMkX-28" style="edgeStyle=orthogonalEdgeStyle;rounded=0;orthogonalLoop=1;jettySize=auto;html=1;entryX=0.5;entryY=0;entryDx=0;entryDy=0;" edge="1" parent="1" source="ZnqQP2Fr6LUKQcLFzMkX-8" target="ZnqQP2Fr6LUKQcLFzMkX-27">
          <mxGeometry relative="1" as="geometry" />
        </mxCell>
        <mxCell id="ZnqQP2Fr6LUKQcLFzMkX-42" value="true" style="edgeLabel;html=1;align=center;verticalAlign=middle;resizable=0;points=[];" vertex="1" connectable="0" parent="ZnqQP2Fr6LUKQcLFzMkX-28">
          <mxGeometry x="-0.3443" y="3" relative="1" as="geometry">
            <mxPoint y="3" as="offset" />
          </mxGeometry>
        </mxCell>
        <mxCell id="ZnqQP2Fr6LUKQcLFzMkX-8" value="y=y0;y&amp;lt;=yn;y+=yx" style="rhombus;whiteSpace=wrap;html=1;" vertex="1" parent="1">
          <mxGeometry x="486" y="450" width="197" height="80" as="geometry" />
        </mxCell>
        <mxCell id="ZnqQP2Fr6LUKQcLFzMkX-30" style="edgeStyle=orthogonalEdgeStyle;rounded=0;orthogonalLoop=1;jettySize=auto;html=1;" edge="1" parent="1" source="ZnqQP2Fr6LUKQcLFzMkX-27" target="ZnqQP2Fr6LUKQcLFzMkX-29">
          <mxGeometry relative="1" as="geometry" />
        </mxCell>
        <mxCell id="ZnqQP2Fr6LUKQcLFzMkX-27" value="double z" style="rounded=0;whiteSpace=wrap;html=1;" vertex="1" parent="1">
          <mxGeometry x="540" y="560" width="90" height="40" as="geometry" />
        </mxCell>
        <mxCell id="ZnqQP2Fr6LUKQcLFzMkX-33" style="edgeStyle=orthogonalEdgeStyle;rounded=0;orthogonalLoop=1;jettySize=auto;html=1;" edge="1" parent="1" source="ZnqQP2Fr6LUKQcLFzMkX-29" target="ZnqQP2Fr6LUKQcLFzMkX-32">
          <mxGeometry relative="1" as="geometry">
            <Array as="points">
              <mxPoint x="733" y="650" />
            </Array>
          </mxGeometry>
        </mxCell>
        <mxCell id="ZnqQP2Fr6LUKQcLFzMkX-48" value="false" style="edgeLabel;html=1;align=center;verticalAlign=middle;resizable=0;points=[];" vertex="1" connectable="0" parent="ZnqQP2Fr6LUKQcLFzMkX-33">
          <mxGeometry x="-0.2358" relative="1" as="geometry">
            <mxPoint as="offset" />
          </mxGeometry>
        </mxCell>
        <mxCell id="ZnqQP2Fr6LUKQcLFzMkX-36" style="edgeStyle=orthogonalEdgeStyle;rounded=0;orthogonalLoop=1;jettySize=auto;html=1;entryX=0.5;entryY=0;entryDx=0;entryDy=0;" edge="1" parent="1" source="ZnqQP2Fr6LUKQcLFzMkX-29" target="ZnqQP2Fr6LUKQcLFzMkX-31">
          <mxGeometry relative="1" as="geometry" />
        </mxCell>
        <mxCell id="ZnqQP2Fr6LUKQcLFzMkX-47" value="true" style="edgeLabel;html=1;align=center;verticalAlign=middle;resizable=0;points=[];" vertex="1" connectable="0" parent="ZnqQP2Fr6LUKQcLFzMkX-36">
          <mxGeometry x="-0.2" y="-4" relative="1" as="geometry">
            <mxPoint as="offset" />
          </mxGeometry>
        </mxCell>
        <mxCell id="ZnqQP2Fr6LUKQcLFzMkX-29" value="x*y&amp;gt;0?" style="rhombus;whiteSpace=wrap;html=1;" vertex="1" parent="1">
          <mxGeometry x="540" y="620" width="90" height="60" as="geometry" />
        </mxCell>
        <mxCell id="ZnqQP2Fr6LUKQcLFzMkX-39" style="edgeStyle=orthogonalEdgeStyle;rounded=0;orthogonalLoop=1;jettySize=auto;html=1;" edge="1" parent="1" source="ZnqQP2Fr6LUKQcLFzMkX-31" target="ZnqQP2Fr6LUKQcLFzMkX-37">
          <mxGeometry relative="1" as="geometry" />
        </mxCell>
        <mxCell id="ZnqQP2Fr6LUKQcLFzMkX-31" value="z=log(sqrt(a*pow(x,2)+b*pow(y,3)))" style="rounded=0;whiteSpace=wrap;html=1;" vertex="1" parent="1">
          <mxGeometry x="320" y="670" width="205" height="50" as="geometry" />
        </mxCell>
        <mxCell id="ZnqQP2Fr6LUKQcLFzMkX-40" style="edgeStyle=orthogonalEdgeStyle;rounded=0;orthogonalLoop=1;jettySize=auto;html=1;" edge="1" parent="1" source="ZnqQP2Fr6LUKQcLFzMkX-32" target="ZnqQP2Fr6LUKQcLFzMkX-38">
          <mxGeometry relative="1" as="geometry" />
        </mxCell>
        <mxCell id="ZnqQP2Fr6LUKQcLFzMkX-32" value="z=pow(a,x)+pow(b,y)" style="rounded=0;whiteSpace=wrap;html=1;" vertex="1" parent="1">
          <mxGeometry x="630" y="670" width="205" height="50" as="geometry" />
        </mxCell>
        <mxCell id="ZnqQP2Fr6LUKQcLFzMkX-41" style="edgeStyle=orthogonalEdgeStyle;rounded=0;orthogonalLoop=1;jettySize=auto;html=1;entryX=0;entryY=0.5;entryDx=0;entryDy=0;" edge="1" parent="1" source="ZnqQP2Fr6LUKQcLFzMkX-37" target="ZnqQP2Fr6LUKQcLFzMkX-6">
          <mxGeometry relative="1" as="geometry">
            <Array as="points">
              <mxPoint x="310" y="770" />
              <mxPoint x="310" y="370" />
            </Array>
          </mxGeometry>
        </mxCell>
        <mxCell id="ZnqQP2Fr6LUKQcLFzMkX-37" value="x equals: x&lt;div&gt;y equals: y&lt;/div&gt;&lt;div&gt;z equals: z&lt;/div&gt;" style="shape=parallelogram;perimeter=parallelogramPerimeter;whiteSpace=wrap;html=1;fixedSize=1;" vertex="1" parent="1">
          <mxGeometry x="360" y="740" width="125" height="60" as="geometry" />
        </mxCell>
        <mxCell id="ZnqQP2Fr6LUKQcLFzMkX-43" style="edgeStyle=orthogonalEdgeStyle;rounded=0;orthogonalLoop=1;jettySize=auto;html=1;entryX=1;entryY=1;entryDx=0;entryDy=0;" edge="1" parent="1" source="ZnqQP2Fr6LUKQcLFzMkX-38" target="ZnqQP2Fr6LUKQcLFzMkX-6">
          <mxGeometry relative="1" as="geometry">
            <Array as="points">
              <mxPoint x="850" y="780" />
              <mxPoint x="850" y="390" />
            </Array>
          </mxGeometry>
        </mxCell>
        <mxCell id="ZnqQP2Fr6LUKQcLFzMkX-38" value="x equals: x&lt;div&gt;y equals: y&lt;/div&gt;&lt;div&gt;z equals: z&lt;/div&gt;" style="shape=parallelogram;perimeter=parallelogramPerimeter;whiteSpace=wrap;html=1;fixedSize=1;" vertex="1" parent="1">
          <mxGeometry x="670" y="740" width="125" height="60" as="geometry" />
        </mxCell>
        <mxCell id="ZnqQP2Fr6LUKQcLFzMkX-46" value="&lt;font color=&quot;#ff3333&quot;&gt;End&lt;/font&gt;" style="ellipse;whiteSpace=wrap;html=1;" vertex="1" parent="1">
          <mxGeometry x="910" y="330" width="120" height="80" as="geometry" />
        </mxCell>
      </root>
    </mxGraphModel>
  </diagram>
</mxfile>
